HIERARCHY
ROOT Hips
{
	OFFSET 0.000000 0.000000 0.000000
	CHANNELS 6 Xposition Yposition Zposition Xrotation Yrotation Zrotation
	JOINT LeftUpLeg_virtual
	{
		OFFSET 0.000000 0.000000 0.000000
		CHANNELS 3 Xrotation Yrotation Zrotation
		JOINT LeftUpLeg
		{
			OFFSET 15.427100 -6.655098 0.678600
			CHANNELS 3 Xrotation Yrotation Zrotation
			JOINT LeftLeg
			{
				OFFSET 4.081073 -39.591068 13.024000
				CHANNELS 3 Xrotation Yrotation Zrotation
				JOINT LeftFoot
				{
					OFFSET -4.081074 -37.707932 -15.979700
					CHANNELS 3 Xrotation Yrotation Zrotation
					JOINT LeftToeBase
					{
						OFFSET 5.346399 -15.068900 20.645000
						CHANNELS 3 Xrotation Yrotation Zrotation
						JOINT LeftToe_End
						{
							OFFSET 2.754700 0.931300 11.300900
							CHANNELS 3 Xrotation Yrotation Zrotation
							End Site
							{
								OFFSET 0 0 0
							}
						}
					}
				}
			}
		}
	}
	JOINT RightUpLeg_virtual
	{
		OFFSET 0.000000 0.000000 0.000000
		CHANNELS 3 Xrotation Yrotation Zrotation
		JOINT RightUpLeg
		{
			OFFSET -15.569500 -6.655098 0.678600
			CHANNELS 3 Xrotation Yrotation Zrotation
			JOINT RightLeg
			{
				OFFSET -4.081825 -39.591045 13.023800
				CHANNELS 3 Xrotation Yrotation Zrotation
				JOINT RightFoot
				{
					OFFSET 4.081824 -37.707954 -15.979600
					CHANNELS 3 Xrotation Yrotation Zrotation
					JOINT RightToeBase
					{
						OFFSET -5.346400 -15.068900 20.645000
						CHANNELS 3 Xrotation Yrotation Zrotation
						JOINT RightToe_End
						{
							OFFSET -2.754700 0.931300 11.300900
							CHANNELS 3 Xrotation Yrotation Zrotation
							End Site
							{
								OFFSET 0 0 0
							}
						}
					}
				}
			}
		}
	}
	JOINT Spine_virtual
	{
		OFFSET 0.000000 0.000000 0.000000
		CHANNELS 3 Xrotation Yrotation Zrotation
		JOINT Spine
		{
			OFFSET -0.279200 12.230698 -2.892100
			CHANNELS 3 Xrotation Yrotation Zrotation
			JOINT Spine1
			{
				OFFSET -0.232667 10.192268 -1.242267
				CHANNELS 3 Xrotation Yrotation Zrotation
				JOINT Spine1_split
				{
					OFFSET -0.232667 10.192268 -1.242267
					CHANNELS 3 Xrotation Yrotation Zrotation
					JOINT Spine2
					{
						OFFSET -0.232667 10.192268 -1.242267
						CHANNELS 3 Xrotation Yrotation Zrotation
						JOINT Neck_virtual
						{
							OFFSET 0.000000 0.000000 0.000000
							CHANNELS 3 Xrotation Yrotation Zrotation
							JOINT Neck
							{
								OFFSET -0.418800 17.814194 8.416900
								CHANNELS 3 Xrotation Yrotation Zrotation
								JOINT Head
								{
									OFFSET 0.000000 7.031097 3.806800
									CHANNELS 3 Xrotation Yrotation Zrotation
									JOINT HeadTop_End
									{
										OFFSET 0.000000 24.646606 12.978600
										CHANNELS 3 Xrotation Yrotation Zrotation
										End Site
										{
											OFFSET 0 0 0
										}
									}
								}
							}
						}
						JOINT LeftShoulder_virtual
						{
							OFFSET 0.000000 0.000000 0.000000
							CHANNELS 3 Xrotation Yrotation Zrotation
							JOINT LeftShoulder
							{
								OFFSET 8.476499 7.247704 -3.868750
								CHANNELS 3 Xrotation Yrotation Zrotation
								JOINT LeftShoulder_split
								{
									OFFSET 8.476499 7.247704 -3.868750
									CHANNELS 3 Xrotation Yrotation Zrotation
									JOINT LeftArm
									{
										OFFSET 9.308998 -2.777710 0.208600
										CHANNELS 3 Xrotation Yrotation Zrotation
										JOINT LeftForeArm
										{
											OFFSET 29.972298 0.000000 0.000000
											CHANNELS 3 Xrotation Yrotation Zrotation
											JOINT LeftHand
											{
												OFFSET 26.026505 0.000000 0.000000
												CHANNELS 3 Xrotation Yrotation Zrotation
												End Site
												{
													OFFSET 0 0 0
												}
											}
										}
									}
								}
							}
						}
						JOINT RightShoulder_virtual
						{
							OFFSET 0.000000 0.000000 0.000000
							CHANNELS 3 Xrotation Yrotation Zrotation
							JOINT RightShoulder
							{
								OFFSET -7.570500 7.247704 -3.868750
								CHANNELS 3 Xrotation Yrotation Zrotation
								JOINT RightShoulder_split
								{
									OFFSET -7.570500 7.247704 -3.868750
									CHANNELS 3 Xrotation Yrotation Zrotation
									JOINT RightArm
									{
										OFFSET -9.308998 -2.777710 0.208500
										CHANNELS 3 Xrotation Yrotation Zrotation
										JOINT RightForeArm
										{
											OFFSET -29.972300 0.000000 0.000000
											CHANNELS 3 Xrotation Yrotation Zrotation
											JOINT RightHand
											{
												OFFSET -26.026505 0.000000 0.000000
												CHANNELS 3 Xrotation Yrotation Zrotation
												End Site
												{
													OFFSET 0 0 0
												}
											}
										}
									}
								}
							}
						}
					}
				}
			}
		}
	}
}
MOTION
Frames: 8
Frame Time: 0.03333333
3.242967 85.271782 -8.235340 0.000000 0.000000 0.000000 4.657117 -37.144430 4.598107 -30.961972 1.683716 9.944714 24.332581 -1.528847 4.326901 4.607445 -3.776997 -17.068424 7.194686 1.226800 0.309694 0.000000 0.000000 0.000000 4.431723 -36.407114 4.460905 2.876849 -19.659856 -13.166849 24.727189 6.638722 -2.845092 -26.814327 -18.709804 20.542221 6.316858 4.186716 -9.276276 0.000000 0.000000 0.000000 4.499283 -36.952611 3.208891 2.449038 4.475906 -1.202733 10.188121 4.560495 -2.044005 0.118637 -0.287994 -0.046106 0.000000 0.000000 0.000000 12.261932 7.165312 -2.358692 -13.973046 -1.565326 -0.494318 -5.147555 13.653476 -10.850830 0.000000 0.000000 0.000000 9.393897 5.689926 -3.314010 2.738557 1.511467 -7.119150 0.737432 0.615055 -0.812614 -18.479053 7.901752 -65.747442 12.897160 -34.719286 7.999116 0.000000 0.000000 0.000000 12.080398 6.255681 -2.066282 0.078209 4.051713 6.919004 2.911627 1.919107 2.230455 -0.211775 -19.592000 60.193330 -7.599149 36.585068 8.663736 0.000000 0.000000 0.000000 
3.213252 85.325638 -8.627258 0.000000 0.000000 0.000000 4.747103 -37.668466 4.848788 -31.379453 2.583426 9.365707 24.366531 -0.676741 4.464605 4.286178 -3.482186 -15.987320 7.005872 1.203898 0.310461 0.000000 0.000000 0.000000 4.549943 -36.135826 4.628284 2.646266 -19.383660 -13.319672 24.592839 6.298229 -2.711214 -26.985806 -18.774129 20.398541 6.765418 4.197988 -9.352017 0.000000 0.000000 0.000000 4.076060 -36.803043 3.253747 2.620289 4.326604 -1.204252 10.261616 4.415937 -2.108682 0.149707 -0.370859 -0.045182 0.000000 0.000000 0.000000 12.123755 7.100602 -2.376639 -13.706904 -1.162032 -1.042538 -4.892786 13.452321 -10.848740 0.000000 0.000000 0.000000 9.308234 5.535374 -3.376719 2.810817 1.379912 -7.276819 0.780096 -0.004040 -0.385956 -18.282164 8.063528 -65.520010 12.938829 -35.600145 7.886017 0.000000 0.000000 0.000000 11.978209 6.173283 -2.020007 0.149341 4.019005 7.072955 2.779250 1.442653 1.920059 0.098966 -19.779560 59.873110 -7.465474 36.127230 8.572623 0.000000 0.000000 0.000000 
3.279398 85.481598 -9.080288 0.000000 0.000000 0.000000 4.726394 -37.971737 4.954074 -32.246337 3.750991 8.946444 24.806704 0.092003 4.717237 4.283669 -4.015381 -15.107977 6.661202 1.162502 0.585717 0.000000 0.000000 0.000000 4.588310 -35.973633 4.703286 2.485194 -18.725404 -13.475206 24.367998 5.711432 -2.371857 -27.121851 -18.945772 20.029598 6.861317 4.389899 -9.096802 0.000000 0.000000 0.000000 3.684159 -36.369313 3.175680 2.945702 3.924824 -1.064617 10.135702 4.127692 -2.159072 0.169551 -0.347266 -0.036310 0.000000 0.000000 0.000000 11.816904 6.868603 -2.358442 -13.221663 -0.717530 -1.845104 -4.957828 12.574983 -11.127112 0.000000 0.000000 0.000000 9.072667 5.225526 -3.421753 2.877426 1.206975 -7.512813 0.824924 -0.572318 0.135474 -17.905921 8.502563 -65.110752 13.424674 -36.358975 7.800581 0.000000 0.000000 0.000000 11.714780 5.936810 -1.941718 0.166943 4.166001 7.253427 2.268510 1.379790 1.681316 0.669857 -19.781327 59.658841 -7.147510 35.639265 8.208916 0.000000 0.000000 0.000000 
3.415719 85.774635 -9.491463 0.000000 0.000000 0.000000 4.711929 -37.925004 4.973606 -33.492055 4.970330 8.764391 25.472504 0.699616 5.017506 5.110814 -5.336772 -14.567537 5.361785 1.098787 1.445641 0.000000 0.000000 0.000000 4.545435 -35.898354 4.698119 2.564401 -17.867368 -13.539697 24.113250 4.903257 -1.891148 -26.971375 -19.193255 19.737432 6.066188 4.773764 -8.578721 0.000000 0.000000 0.000000 3.534299 -35.679972 3.059268 3.369807 3.366279 -0.843599 9.850981 3.772627 -2.192505 0.136923 -0.237964 -0.033268 0.000000 0.000000 0.000000 11.386870 6.521120 -2.320826 -12.594647 -0.275846 -2.791126 -5.442456 10.938342 -11.556117 0.000000 0.000000 0.000000 8.755628 4.811050 -3.447570 2.931132 0.991677 -7.786377 0.763351 -0.993773 0.599084 -17.386463 8.974870 -64.425541 14.097461 -36.579573 7.639444 0.000000 0.000000 0.000000 11.371328 5.592905 -1.845134 0.146050 4.457286 7.470736 1.533849 1.663695 1.501675 1.408212 -19.242443 59.498427 -6.653616 35.095503 7.617787 0.000000 0.000000 0.000000 
3.629018 86.130951 -9.775539 0.000000 0.000000 0.000000 4.768325 -37.395395 4.924032 -34.915845 6.383002 8.735196 26.193075 1.510044 5.303128 6.655641 -6.807705 -13.724010 3.432174 0.969448 2.713592 0.000000 0.000000 0.000000 4.587660 -35.707389 4.678468 3.012271 -17.084472 -13.410580 23.791904 3.821536 -1.312945 -26.791755 -19.501049 19.457102 4.819726 5.267970 -7.896070 0.000000 0.000000 0.000000 3.614762 -34.619357 2.946555 3.836788 2.754001 -0.664918 9.494791 3.409784 -2.209306 0.106809 -0.116462 -0.034964 0.000000 0.000000 0.000000 10.888919 6.128199 -2.281530 -11.994889 0.111563 -3.722710 -6.360267 8.548157 -11.987448 0.000000 0.000000 0.000000 8.465235 4.365473 -3.453618 2.955641 0.679640 -8.014818 0.737618 -1.405308 0.824196 -16.988875 9.078874 -63.349643 14.714917 -36.207724 7.305634 0.000000 0.000000 0.000000 11.041405 5.221113 -1.760561 0.100299 4.863204 7.785298 0.861918 2.020037 1.438735 2.194974 -18.110568 59.371863 -6.033865 34.390785 6.889390 0.000000 0.000000 0.000000 
3.864122 86.448334 -9.801319 0.000000 0.000000 0.000000 4.957881 -36.280531 4.853062 -36.444404 8.282400 8.843807 26.806811 2.990881 5.430881 8.192433 -7.631478 -11.974784 2.462726 0.836724 3.648694 0.000000 0.000000 0.000000 4.811157 -35.092737 4.663063 4.025759 -16.591906 -13.037612 23.224511 2.509771 -0.702326 -27.050758 -19.784425 18.923799 3.624375 5.810468 -7.145379 0.000000 0.000000 0.000000 3.932618 -32.961147 2.874589 4.275423 2.164673 -0.639910 9.134092 3.092411 -2.216557 0.086867 -0.012082 -0.047170 0.000000 0.000000 0.000000 10.435575 5.767278 -2.253816 -11.614094 0.378911 -4.492175 -7.580497 5.568541 -12.267467 0.000000 0.000000 0.000000 8.289839 3.959893 -3.438989 2.934019 0.224504 -8.133427 0.850871 -1.908967 0.762359 -16.996721 8.580056 -61.790051 15.100402 -35.349955 6.788318 0.000000 0.000000 0.000000 10.810824 4.881415 -1.700990 0.032265 5.381026 8.249638 0.348920 2.076045 1.571669 2.752884 -16.413628 59.255108 -5.419694 33.613383 6.149988 0.000000 0.000000 0.000000 
4.116872 86.627472 -9.394749 0.000000 0.000000 0.000000 5.436787 -34.901215 4.853249 -37.974947 10.862349 9.065047 27.313045 5.256372 5.329731 8.947477 -7.554410 -9.078491 3.038696 0.786828 4.067005 0.000000 0.000000 0.000000 5.384735 -33.950637 4.743411 5.516579 -16.535120 -12.458538 22.454886 1.070223 -0.146096 -27.705687 -19.979388 18.181689 2.416607 6.388370 -6.392640 0.000000 0.000000 0.000000 4.355855 -30.817793 2.843716 4.620340 1.675249 -0.815404 8.829413 2.864586 -2.213849 0.065038 0.045408 -0.048101 0.000000 0.000000 0.000000 10.117653 5.513462 -2.236045 -11.544767 0.534102 -5.005935 -8.877487 2.061030 -12.288878 0.000000 0.000000 0.000000 8.270976 3.669150 -3.392550 2.851462 -0.426007 -8.143435 1.125397 -2.340764 0.534265 -17.854989 7.459995 -59.831658 15.299113 -34.263712 6.224944 0.000000 0.000000 0.000000 10.733721 4.619979 -1.682431 -0.038880 6.042271 8.832986 0.108069 1.990280 1.893534 2.804624 -14.257674 59.201197 -5.003594 33.074313 5.548558 0.000000 0.000000 0.000000 
4.436373 86.609177 -8.442810 0.000000 0.000000 0.000000 6.210247 -33.542082 4.923414 -39.336972 14.052972 9.336670 27.877357 7.958098 4.975797 8.604196 -6.907856 -5.303687 4.724166 0.825294 4.122028 0.000000 0.000000 0.000000 6.287566 -32.359404 4.871890 7.121940 -16.939508 -11.777050 21.833960 -0.351746 0.437709 -28.074803 -20.068703 17.699595 0.846412 6.965085 -5.606433 0.000000 0.000000 0.000000 4.788801 -28.337014 2.761036 4.793364 1.355759 -1.163225 8.621208 2.752515 -2.182656 0.074993 0.029377 -0.033565 0.000000 0.000000 0.000000 9.965421 5.404178 -2.213380 -11.854879 0.581512 -5.220694 -10.083786 -1.903088 -12.003316 0.000000 0.000000 0.000000 8.396770 3.546503 -3.271239 2.706828 -1.263676 -7.989375 1.532625 -2.747215 0.153167 -19.815840 5.694659 -57.663367 15.535342 -33.489606 5.851731 0.000000 0.000000 0.000000 10.774728 4.457171 -1.695323 -0.123975 6.868665 9.515805 0.069949 2.073981 2.160265 1.897482 -11.974566 59.313110 -4.928987 33.250389 5.193397 0.000000 0.000000 0.000000 
